<?xml version="1.0" encoding="UTF-8"?>
<svg width="2000" height="1400" xmlns="http://www.w3.org/2000/svg">
  <defs>
    <style>
      .title { font-family: Arial, sans-serif; font-size: 24px; font-weight: bold; fill: #2c3e50; }
      .subtitle { font-family: Arial, sans-serif; font-size: 16px; font-weight: bold; fill: #34495e; }
      .layer-text { font-family: Arial, sans-serif; font-size: 12px; fill: #2c3e50; }
      .param-text { font-family: Arial, sans-serif; font-size: 10px; fill: #7f8c8d; }
      .fusion-text { font-family: Arial, sans-serif; font-size: 11px; fill: #e74c3c; font-weight: bold; }
      .flow-arrow { stroke: #3498db; stroke-width: 2; fill: none; marker-end: url(#arrowhead); }
      .fusion-arrow { stroke: #e74c3c; stroke-width: 3; fill: none; marker-end: url(#fusion-arrowhead); }
      .data-arrow { stroke: #27ae60; stroke-width: 2; fill: none; marker-end: url(#data-arrowhead); }
      .depth-arrow { stroke: #8e44ad; stroke-width: 2; fill: none; marker-end: url(#depth-arrowhead); }
      .rgb-arrow { stroke: #f39c12; stroke-width: 2; fill: none; marker-end: url(#rgb-arrowhead); }
      .input-box { fill: #e3f2fd; stroke: #2196f3; stroke-width: 2; rx: 8; }
      .depth-box { fill: #f3e5f5; stroke: #9c27b0; stroke-width: 2; rx: 8; }
      .rgb-box { fill: #fff3e0; stroke: #ff9800; stroke-width: 2; rx: 8; }
      .fusion-box { fill: #ffebee; stroke: #f44336; stroke-width: 2; rx: 8; }
      .attention-box { fill: #e8f5e8; stroke: #4caf50; stroke-width: 2; rx: 8; }
      .output-box { fill: #fce4ec; stroke: #e91e63; stroke-width: 2; rx: 8; }
      .dit-box { fill: #e1f5fe; stroke: #0288d1; stroke-width: 2; rx: 8; }
    </style>
    <marker id="arrowhead" markerWidth="10" markerHeight="7" refX="9" refY="3.5" orient="auto">
      <polygon points="0 0, 10 3.5, 0 7" fill="#3498db"/>
    </marker>
    <marker id="fusion-arrowhead" markerWidth="12" markerHeight="8" refX="11" refY="4" orient="auto">
      <polygon points="0 0, 12 4, 0 8" fill="#e74c3c"/>
    </marker>
    <marker id="data-arrowhead" markerWidth="10" markerHeight="7" refX="9" refY="3.5" orient="auto">
      <polygon points="0 0, 10 3.5, 0 7" fill="#27ae60"/>
    </marker>
    <marker id="depth-arrowhead" markerWidth="10" markerHeight="7" refX="9" refY="3.5" orient="auto">
      <polygon points="0 0, 10 3.5, 0 7" fill="#8e44ad"/>
    </marker>
    <marker id="rgb-arrowhead" markerWidth="10" markerHeight="7" refX="9" refY="3.5" orient="auto">
      <polygon points="0 0, 10 3.5, 0 7" fill="#f39c12"/>
    </marker>
  </defs>

  <!-- Title -->
  <text x="1000" y="30" text-anchor="middle" class="title">多视图特征融合完整架构</text>
  <text x="1000" y="55" text-anchor="middle" class="param-text">深度图 + RGB图像 → 统一多模态特征表示</text>

  <!-- Input Section -->
  <g id="input-section">
    <text x="100" y="100" class="subtitle">多视图输入数据</text>
    
    <!-- Depth Inputs -->
    <text x="100" y="125" class="param-text">深度图输入 (4视角)</text>
    <rect x="50" y="135" width="100" height="60" class="depth-box"/>
    <text x="100" y="155" text-anchor="middle" class="layer-text">前视角深度</text>
    <text x="100" y="170" text-anchor="middle" class="param-text">(B,1,H,W)</text>
    
    <rect x="170" y="135" width="100" height="60" class="depth-box"/>
    <text x="220" y="155" text-anchor="middle" class="layer-text">右视角深度</text>
    <text x="220" y="170" text-anchor="middle" class="param-text">(B,1,H,W)</text>
    
    <rect x="290" y="135" width="100" height="60" class="depth-box"/>
    <text x="340" y="155" text-anchor="middle" class="layer-text">后视角深度</text>
    <text x="340" y="170" text-anchor="middle" class="param-text">(B,1,H,W)</text>
    
    <rect x="410" y="135" width="100" height="60" class="depth-box"/>
    <text x="460" y="155" text-anchor="middle" class="layer-text">左视角深度</text>
    <text x="460" y="170" text-anchor="middle" class="param-text">(B,1,H,W)</text>
    
    <!-- RGB Inputs -->
    <text x="600" y="125" class="param-text">RGB图像输入 (4视角)</text>
    <rect x="550" y="135" width="100" height="60" class="rgb-box"/>
    <text x="600" y="155" text-anchor="middle" class="layer-text">前视角RGB</text>
    <text x="600" y="170" text-anchor="middle" class="param-text">(B,3,224,224)</text>
    
    <rect x="670" y="135" width="100" height="60" class="rgb-box"/>
    <text x="720" y="155" text-anchor="middle" class="layer-text">右视角RGB</text>
    <text x="720" y="170" text-anchor="middle" class="param-text">(B,3,224,224)</text>
    
    <rect x="790" y="135" width="100" height="60" class="rgb-box"/>
    <text x="840" y="155" text-anchor="middle" class="layer-text">后视角RGB</text>
    <text x="840" y="170" text-anchor="middle" class="param-text">(B,3,224,224)</text>
    
    <rect x="910" y="135" width="100" height="60" class="rgb-box"/>
    <text x="960" y="155" text-anchor="middle" class="layer-text">左视角RGB</text>
    <text x="960" y="170" text-anchor="middle" class="param-text">(B,3,224,224)</text>
  </g>

  <!-- Depth Processing Branch -->
  <g id="depth-branch">
    <text x="100" y="250" class="subtitle">深度图处理分支 (MultiViewDepthControlNet)</text>
    
    <!-- Depth Concatenation -->
    <rect x="50" y="260" width="200" height="80" class="depth-box"/>
    <text x="150" y="280" text-anchor="middle" class="layer-text">深度图拼接</text>
    <text x="60" y="300" class="param-text">• 4视角拼接: (B, 4, 1, H, W)</text>
    <text x="60" y="315" class="param-text">• 重塑: (B×4, 1, H, W)</text>
    <text x="60" y="330" class="param-text">• 批量并行处理</text>
    
    <!-- Depth Encoder -->
    <rect x="280" y="260" width="200" height="80" class="depth-box"/>
    <text x="380" y="280" text-anchor="middle" class="layer-text">深度特征编码</text>
    <text x="290" y="300" class="param-text">• 3层卷积网络</text>
    <text x="290" y="315" class="param-text">• 1→32→64→128→256</text>
    <text x="290" y="330" class="param-text">• 输出: (B×4, 256)</text>
    
    <!-- Depth View Embedding -->
    <rect x="510" y="260" width="200" height="80" class="depth-box"/>
    <text x="610" y="280" text-anchor="middle" class="layer-text">深度视角编码</text>
    <text x="520" y="300" class="param-text">• 视角嵌入: (4, 256)</text>
    <text x="520" y="315" class="param-text">• 特征增强</text>
    <text x="520" y="330" class="param-text">• 输出: (B, 4, 256)</text>
    
    <!-- Depth Fusion -->
    <rect x="740" y="260" width="200" height="80" class="depth-box"/>
    <text x="840" y="280" text-anchor="middle" class="layer-text">深度特征融合</text>
    <text x="750" y="300" class="param-text">• 注意力/加权/拼接融合</text>
    <text x="750" y="315" class="param-text">• 多策略可选</text>
    <text x="750" y="330" class="param-text">• 输出: (B, 768)</text>
  </g>

  <!-- RGB Processing Branch -->
  <g id="rgb-branch">
    <text x="1100" y="250" class="subtitle">RGB图像处理分支 (DinoImageEncoderMV)</text>
    
    <!-- RGB Concatenation -->
    <rect x="1050" y="260" width="200" height="80" class="rgb-box"/>
    <text x="1150" y="280" text-anchor="middle" class="layer-text">RGB图像拼接</text>
    <text x="1060" y="300" class="param-text">• 4视角拼接: (B, 4, 3, 224, 224)</text>
    <text x="1060" y="315" class="param-text">• 重塑: (B×4, 3, 224, 224)</text>
    <text x="1060" y="330" class="param-text">• DINOv2预处理</text>
    
    <!-- DINOv2 Encoder -->
    <rect x="1280" y="260" width="200" height="80" class="rgb-box"/>
    <text x="1380" y="280" text-anchor="middle" class="layer-text">DINOv2编码</text>
    <text x="1290" y="300" class="param-text">• 24层Transformer</text>
    <text x="1290" y="315" class="param-text">• Patch嵌入 + 位置编码</text>
    <text x="1290" y="330" class="param-text">• 输出: (B×4, 256, 768)</text>
    
    <!-- RGB View Embedding -->
    <rect x="1510" y="260" width="200" height="80" class="rgb-box"/>
    <text x="1610" y="280" text-anchor="middle" class="layer-text">RGB视角编码</text>
    <text x="1520" y="300" class="param-text">• 正弦位置编码</text>
    <text x="1520" y="315" class="param-text">• 视角特征增强</text>
    <text x="1520" y="330" class="param-text">• 输出: (B, 4, 256, 768)</text>
    
    <!-- RGB Fusion -->
    <rect x="1740" y="260" width="200" height="80" class="rgb-box"/>
    <text x="1840" y="280" text-anchor="middle" class="layer-text">RGB特征融合</text>
    <text x="1750" y="300" class="param-text">• 序列拼接</text>
    <text x="1750" y="315" class="param-text">• 4×256 = 1024 patches</text>
    <text x="1750" y="330" class="param-text">• 输出: (B, 1024, 768)</text>
  </g>

  <!-- Cross-Modal Fusion -->
  <g id="cross-modal-fusion">
    <text x="500" y="400" class="subtitle">跨模态特征融合</text>
    
    <!-- Feature Alignment -->
    <rect x="200" y="410" width="250" height="100" class="fusion-box"/>
    <text x="325" y="430" text-anchor="middle" class="fusion-text">特征对齐</text>
    <text x="210" y="450" class="param-text">• 深度特征: (B, 768)</text>
    <text x="210" y="465" class="param-text">• RGB特征: (B, 1024, 768)</text>
    <text x="210" y="480" class="param-text">• 深度特征扩展: (B, 1, 768)</text>
    <text x="210" y="495" class="param-text">• 统一序列格式</text>
    
    <!-- Cross-Attention -->
    <rect x="480" y="410" width="250" height="100" class="fusion-box"/>
    <text x="605" y="430" text-anchor="middle" class="fusion-text">交叉注意力融合</text>
    <text x="490" y="450" class="param-text">• 深度作为Query</text>
    <text x="490" y="465" class="param-text">• RGB作为Key/Value</text>
    <text x="490" y="480" class="param-text">• 注意力权重学习</text>
    <text x="490" y="495" class="param-text">• 几何-语义对应</text>
    
    <!-- Feature Concatenation -->
    <rect x="760" y="410" width="250" height="100" class="fusion-box"/>
    <text x="885" y="430" text-anchor="middle" class="fusion-text">特征拼接</text>
    <text x="770" y="450" class="param-text">• 深度+RGB拼接</text>
    <text x="770" y="465" class="param-text">• (B, 1+1024, 768)</text>
    <text x="770" y="480" class="param-text">• = (B, 1025, 768)</text>
    <text x="770" y="495" class="param-text">• 多模态序列</text>
    
    <!-- Adaptive Fusion -->
    <rect x="1040" y="410" width="250" height="100" class="fusion-box"/>
    <text x="1165" y="430" text-anchor="middle" class="fusion-text">自适应融合</text>
    <text x="1050" y="450" class="param-text">• 学习融合权重</text>
    <text x="1050" y="465" class="param-text">• 门控机制</text>
    <text x="1050" y="480" class="param-text">• 动态平衡</text>
    <text x="1050" y="495" class="param-text">• 输出: (B, 1025, 768)</text>
  </g>

  <!-- DiT Integration -->
  <g id="dit-integration">
    <text x="500" y="560" class="subtitle">DiT模型集成</text>
    
    <!-- Input Preparation -->
    <rect x="200" y="570" width="200" height="100" class="dit-box"/>
    <text x="300" y="590" text-anchor="middle" class="layer-text">输入准备</text>
    <text x="210" y="610" class="param-text">• 多模态特征: (B, 1025, 768)</text>
    <text x="210" y="625" class="param-text">• 时间嵌入</text>
    <text x="210" y="640" class="param-text">• 条件嵌入</text>
    <text x="210" y="655" class="param-text">• 噪声输入</text>
    
    <!-- Self-Attention -->
    <rect x="430" y="570" width="200" height="100" class="dit-box"/>
    <text x="530" y="590" text-anchor="middle" class="layer-text">自注意力</text>
    <text x="440" y="610" class="param-text">• LoRA增强的to_q, to_k, to_v</text>
    <text x="440" y="625" class="param-text">• 多头注意力</text>
    <text x="440" y="640" class="param-text">• 序列内交互</text>
    <text x="440" y="655" class="param-text">• 全局上下文</text>
    
    <!-- Cross-Attention -->
    <rect x="660" y="570" width="200" height="100" class="dit-box"/>
    <text x="760" y="590" text-anchor="middle" class="layer-text">交叉注意力</text>
    <text x="670" y="610" class="param-text">• LoRA增强的to_q, to_k, to_v</text>
    <text x="670" y="625" class="param-text">• 条件信息融合</text>
    <text x="670" y="640" class="param-text">• 深度-RGB交互</text>
    <text x="670" y="655" class="param-text">• 多模态理解</text>
    
    <!-- Feed Forward -->
    <rect x="890" y="570" width="200" height="100" class="dit-box"/>
    <text x="990" y="590" text-anchor="middle" class="layer-text">前馈网络</text>
    <text x="900" y="610" class="param-text">• LoRA增强的to_out</text>
    <text x="900" y="625" class="param-text">• 非线性变换</text>
    <text x="900" y="640" class="param-text">• 特征精炼</text>
    <text x="900" y="655" class="param-text">• 残差连接</text>
    
    <!-- Output Generation -->
    <rect x="1120" y="570" width="200" height="100" class="dit-box"/>
    <text x="1220" y="590" text-anchor="middle" class="layer-text">输出生成</text>
    <text x="1130" y="610" class="param-text">• 去噪预测</text>
    <text x="1130" y="625" class="param-text">• 3D形状生成</text>
    <text x="1130" y="640" class="param-text">• 多视图一致性</text>
    <text x="1130" y="655" class="param-text">• 高质量输出</text>
  </g>

  <!-- LoRA Enhancement -->
  <g id="lora-enhancement">
    <text x="500" y="720" class="subtitle">LoRA参数增强机制</text>
    
    <rect x="100" y="730" width="1600" height="120" class="attention-box"/>
    <text x="900" y="750" text-anchor="middle" class="layer-text">LoRA在多视图特征融合中的作用</text>
    
    <!-- LoRA Details -->
    <rect x="120" y="770" width="200" height="60" class="fusion-box"/>
    <text x="220" y="790" text-anchor="middle" class="fusion-text">LoRA配置</text>
    <text x="130" y="810" class="param-text">• rank=8, alpha=16</text>
    <text x="130" y="825" class="param-text">• 目标模块: to_q, to_k, to_v, to_out</text>
    
    <rect x="340" y="770" width="200" height="60" class="fusion-box"/>
    <text x="440" y="790" text-anchor="middle" class="fusion-text">深度适应</text>
    <text x="350" y="810" class="param-text">• 深度特征调制</text>
    <text x="350" y="825" class="param-text">• 几何信息增强</text>
    
    <rect x="560" y="770" width="200" height="60" class="fusion-box"/>
    <text x="660" y="790" text-anchor="middle" class="fusion-text">RGB适应</text>
    <text x="570" y="810" class="param-text">• 语义特征调制</text>
    <text x="570" y="825" class="param-text">• 纹理信息增强</text>
    
    <rect x="780" y="770" width="200" height="60" class="fusion-box"/>
    <text x="880" y="790" text-anchor="middle" class="fusion-text">跨模态融合</text>
    <text x="790" y="810" class="param-text">• 模态间注意力</text>
    <text x="790" y="825" class="param-text">• 一致性约束</text>
    
    <rect x="1000" y="770" width="200" height="60" class="fusion-box"/>
    <text x="1100" y="790" text-anchor="middle" class="fusion-text">参数效率</text>
    <text x="1010" y="810" class="param-text">• 仅3.15M参数</text>
    <text x="1010" y="825" class="param-text">• 高效微调</text>
    
    <rect x="1220" y="770" width="200" height="60" class="fusion-box"/>
    <text x="1320" y="790" text-anchor="middle" class="fusion-text">训练策略</text>
    <text x="1230" y="810" class="param-text">• 冻结主干网络</text>
    <text x="1230" y="825" class="param-text">• 仅训练LoRA</text>
    
    <rect x="1440" y="770" width="200" height="60" class="fusion-box"/>
    <text x="1540" y="790" text-anchor="middle" class="fusion-text">性能提升</text>
    <text x="1450" y="810" class="param-text">• 更好的3D理解</text>
    <text x="1450" y="825" class="param-text">• 多视图一致性</text>
  </g>

  <!-- Training Process -->
  <g id="training-process">
    <text x="500" y="900" class="subtitle">训练流程</text>
    
    <!-- Data Flow -->
    <rect x="100" y="910" width="200" height="80" class="input-box"/>
    <text x="200" y="930" text-anchor="middle" class="layer-text">数据输入</text>
    <text x="110" y="950" class="param-text">• 多视图RGB + 深度</text>
    <text x="110" y="965" class="param-text">• 目标3D形状</text>
    <text x="110" y="980" class="param-text">• 噪声调度</text>
    
    <!-- Forward Pass -->
    <rect x="320" y="910" width="200" height="80" class="attention-box"/>
    <text x="420" y="930" text-anchor="middle" class="layer-text">前向传播</text>
    <text x="330" y="950" class="param-text">• 特征提取</text>
    <text x="330" y="965" class="param-text">• 多模态融合</text>
    <text x="330" y="980" class="param-text">• DiT生成</text>
    
    <!-- Loss Computation -->
    <rect x="540" y="910" width="200" height="80" class="fusion-box"/>
    <text x="640" y="930" text-anchor="middle" class="layer-text">损失计算</text>
    <text x="550" y="950" class="param-text">• 扩散损失</text>
    <text x="550" y="965" class="param-text">• 多视图一致性</text>
    <text x="550" y="980" class="param-text">• 几何约束</text>
    
    <!-- Gradient Update -->
    <rect x="760" y="910" width="200" height="80" class="fusion-box"/>
    <text x="860" y="930" text-anchor="middle" class="layer-text">梯度更新</text>
    <text x="770" y="950" class="param-text">• 仅更新LoRA参数</text>
    <text x="770" y="965" class="param-text">• 冻结主干网络</text>
    <text x="770" y="980" class="param-text">• 高效训练</text>
    
    <!-- Evaluation -->
    <rect x="980" y="910" width="200" height="80" class="output-box"/>
    <text x="1080" y="930" text-anchor="middle" class="layer-text">评估指标</text>
    <text x="990" y="950" class="param-text">• 3D形状质量</text>
    <text x="990" y="965" class="param-text">• 多视图一致性</text>
    <text x="990" y="980" class="param-text">• 几何精度</text>
  </g>

  <!-- Output Section -->
  <g id="output-section">
    <text x="500" y="1040" class="subtitle">最终输出</text>
    
    <rect x="300" y="1050" width="400" height="100" class="output-box"/>
    <text x="500" y="1070" text-anchor="middle" class="layer-text">高质量3D形状生成</text>
    <text x="310" y="1090" class="param-text">• 多视图一致的3D几何</text>
    <text x="310" y="1105" class="param-text">• 丰富的纹理细节</text>
    <text x="310" y="1120" class="param-text">• 精确的深度信息</text>
    <text x="310" y="1135" class="param-text">• 360°完整覆盖</text>
    <text x="500" y="1135" class="param-text">• 高保真度重建</text>
  </g>

  <!-- Flow Arrows -->
  <g id="arrows">
    <!-- Input to processing branches -->
    <line x1="255" y1="195" x2="150" y2="260" class="depth-arrow"/>
    <line x1="755" y1="195" x2="1150" y2="260" class="rgb-arrow"/>
    
    <!-- Depth processing chain -->
    <line x1="250" y1="300" x2="280" y2="300" class="depth-arrow"/>
    <line x1="480" y1="300" x2="510" y2="300" class="depth-arrow"/>
    <line x1="710" y1="300" x2="740" y2="300" class="depth-arrow"/>
    
    <!-- RGB processing chain -->
    <line x1="1250" y1="300" x2="1280" y2="300" class="rgb-arrow"/>
    <line x1="1480" y1="300" x2="1510" y2="300" class="rgb-arrow"/>
    <line x1="1710" y1="300" x2="1740" y2="300" class="rgb-arrow"/>
    
    <!-- To cross-modal fusion -->
    <line x1="840" y1="340" x2="325" y2="410" class="depth-arrow"/>
    <line x1="1840" y1="340" x2="885" y2="410" class="rgb-arrow"/>
    
    <!-- Cross-modal fusion chain -->
    <line x1="450" y1="460" x2="480" y2="460" class="fusion-arrow"/>
    <line x1="730" y1="460" x2="760" y2="460" class="fusion-arrow"/>
    <line x1="1010" y1="460" x2="1040" y2="460" class="fusion-arrow"/>
    
    <!-- To DiT integration -->
    <line x1="1165" y1="510" x2="300" y2="570" class="fusion-arrow"/>
    
    <!-- DiT processing chain -->
    <line x1="400" y1="620" x2="430" y2="620" class="flow-arrow"/>
    <line x1="630" y1="620" x2="660" y2="620" class="flow-arrow"/>
    <line x1="860" y1="620" x2="890" y2="620" class="flow-arrow"/>
    <line x1="1090" y1="620" x2="1120" y2="620" class="flow-arrow"/>
    
    <!-- To training process -->
    <line x1="1220" y1="670" x2="200" y2="910" class="flow-arrow"/>
    
    <!-- Training process chain -->
    <line x1="300" y1="950" x2="320" y2="950" class="flow-arrow"/>
    <line x1="520" y1="950" x2="540" y2="950" class="flow-arrow"/>
    <line x1="740" y1="950" x2="760" y2="950" class="flow-arrow"/>
    <line x1="960" y1="950" x2="980" y2="950" class="flow-arrow"/>
    
    <!-- To output -->
    <line x1="1080" y1="990" x2="500" y2="1050" class="flow-arrow"/>
  </g>

  <!-- Key Advantages -->
  <g id="advantages">
    <text x="100" y="1200" class="subtitle">关键优势</text>
    
    <rect x="100" y="1210" width="1700" height="80" style="fill: #fff3cd; stroke: #ffc107; stroke-width: 1; rx: 4;"/>
    <text x="110" y="1230" class="param-text">✓ 多模态信息融合: 深度几何 + RGB语义</text>
    <text x="110" y="1245" class="param-text">✓ 360°完整视角覆盖: 4个视角提供全方位信息</text>
    <text x="110" y="1260" class="param-text">✓ 高效参数训练: LoRA仅需3.15M参数实现强大适应</text>
    <text x="110" y="1275" class="param-text">✓ 多视图一致性: 统一的特征表示确保几何一致性</text>
    
    <text x="900" y="1230" class="param-text">✓ 强大的预训练基础: DINOv2 + DiT的组合</text>
    <text x="900" y="1245" class="param-text">✓ 灵活的融合策略: 多种注意力机制可选</text>
    <text x="900" y="1260" class="param-text">✓ 端到端训练: 统一的损失函数优化</text>
    <text x="900" y="1275" class="param-text">✓ 高质量3D生成: 精确几何 + 丰富细节</text>
  </g>

  <!-- Technical Specifications -->
  <g id="tech-specs">
    <text x="100" y="1320" class="subtitle">技术规格</text>
    
    <rect x="100" y="1330" width="1700" height="50" style="fill: #e8f5e8; stroke: #4caf50; stroke-width: 1; rx: 4;"/>
    <text x="110" y="1350" class="param-text">深度编码器: 3层CNN (1→256维)  |  RGB编码器: DINOv2-Large (768维)  |  LoRA配置: rank=8, alpha=16  |  总参数: 3.15M可训练</text>
    <text x="110" y="1365" class="param-text">输入分辨率: 深度(H×W), RGB(224×224)  |  输出特征: (B, 1025, 768)  |  视角数量: 4 (可配置)  |  训练策略: 冻结主干+LoRA微调</text>
  </g>

</svg>